<svg xmlns="http://www.w3.org/2000/svg" width="15" height="14" viewBox="0 0 15 14" fill="none">
  <path d="M11.9162 1.52727H9.63449V0H8.80477V1.52727H3.82649V0H2.99677V1.52727H0.715059C0.550078 1.52747 0.391909 1.5965 0.275249 1.71921C0.158589 1.84192 0.0929656 2.00828 0.0927734 2.18182V11.3455C0.0929656 11.519 0.158589 11.6854 0.275249 11.8081C0.391909 11.9308 0.550078 11.9998 0.715059 12H11.9162C12.0812 11.9998 12.2394 11.9308 12.356 11.8081C12.4727 11.6854 12.5383 11.519 12.5385 11.3455V2.18182C12.5383 2.00828 12.4727 1.84192 12.356 1.71921C12.2394 1.5965 12.0812 1.52747 11.9162 1.52727ZM11.7088 11.1273H0.922488V2.4H2.99677V3.49091H3.82649V2.4H8.80477V3.49091H9.63449V2.4H11.7088V11.1273Z" fill="#6C6C6C"/>
  <path d="M2.58192 5.01818H3.41163V5.89091H2.58192V5.01818ZM4.86363 5.01818H5.69335V5.89091H4.86363V5.01818ZM6.93792 5.01818H7.76763V5.89091H6.93792V5.01818ZM9.21963 5.01818H10.0493V5.89091H9.21963V5.01818ZM2.58192 6.98182H3.41163V7.85455H2.58192V6.98182ZM4.86363 6.98182H5.69335V7.85455H4.86363V6.98182ZM6.93792 6.98182H7.76763V7.85455H6.93792V6.98182ZM9.21963 6.98182H10.0493V7.85455H9.21963V6.98182ZM2.58192 8.94545H3.41163V9.81818H2.58192V8.94545ZM4.86363 8.94545H5.69335V9.81818H4.86363V8.94545ZM6.93792 8.94545H7.76763V9.81818H6.93792V8.94545ZM9.21963 8.94545H10.0493V9.81818H9.21963V8.94545Z" fill="#6C6C6C"/>
</svg>