<svg width="20" height="20" viewBox="0 0 20 20" fill="none" xmlns="http://www.w3.org/2000/svg">
<g id="comments-svgrepo-com 1">
<path id="Vector" d="M5.57813 10.8438C4.76563 10.8438 4.09375 10.1719 4.09375 9.32813C4.09375 8.48438 4.76563 7.8125 5.57813 7.8125C6.39063 7.8125 7.0625 8.48438 7.0625 9.32813C7.0625 10.1719 6.40625 10.8438 5.57813 10.8438ZM10.0156 10.8438C9.20313 10.8438 8.53125 10.1719 8.53125 9.32813C8.53125 8.48438 9.20313 7.8125 10.0156 7.8125C10.8281 7.8125 11.5 8.48438 11.5 9.32813C11.5 10.1719 10.8281 10.8438 10.0156 10.8438ZM14.4375 10.8438C13.625 10.8438 12.9531 10.1719 12.9531 9.32813C12.9531 8.48438 13.625 7.8125 14.4375 7.8125C15.25 7.8125 15.9219 8.48438 15.9219 9.32813C15.9219 10.1719 15.25 10.8438 14.4375 10.8438ZM6 18.0781C5.89063 18.0781 5.76563 18.0469 5.65625 18C5.40625 17.8906 5.23438 17.6563 5.1875 17.3906L4.79688 14.9844L5.625 14.7969L6.03125 17.1875L8.625 15.6719L8.67188 16.5625L6.42188 17.9688C6.29688 18.0313 6.14063 18.0781 6 18.0781Z" fill="#E2941F"/>
<path id="Vector_2" d="M10 1.125C4.6875 1.125 0.359375 4.59375 0.359375 8.875C0.359375 11.9219 2.5625 14.5781 5.76563 15.8281L5.625 14.7969C3.01563 13.6094 1.26563 11.3906 1.26563 8.875C1.26563 5.09375 5.1875 2.03125 10 2.03125C14.8125 2.03125 18.7344 5.09375 18.7344 8.875C18.7344 12.6563 14.8125 15.7188 10 15.7188C9.73438 15.7188 8.875 15.6719 8.625 15.6563L7.82813 16.4219C8.53125 16.5469 9.26563 16.625 10 16.625C15.3125 16.625 19.6406 13.1563 19.6406 8.875C19.6406 4.59375 15.3125 1.125 10 1.125Z" fill="#E2941F"/>
</g>
</svg>
