<svg xmlns="http://www.w3.org/2000/svg" width="12" height="14" viewBox="0 0 12 14" fill="none">
  <path d="M5.76179 0C7.28991 0 8.75545 0.607044 9.83599 1.68759C10.9165 2.76814 11.5236 4.23367 11.5236 5.76179C11.5236 8.19652 9.81278 10.8499 6.43548 13.7503C6.24769 13.9116 6.00826 14.0002 5.76069 14C5.51312 13.9998 5.27384 13.9108 5.08633 13.7491L4.86295 13.5553C1.63517 10.7305 0 8.14215 0 5.76179C0 4.23367 0.607044 2.76814 1.68759 1.68759C2.76814 0.607044 4.23367 0 5.76179 0ZM5.76179 0.886429C4.46877 0.886429 3.2287 1.40008 2.31439 2.31439C1.40008 3.2287 0.88643 4.46877 0.88643 5.76179C0.88643 7.83131 2.39218 10.2158 5.44504 12.8869L5.66547 13.0778C5.69227 13.1008 5.72644 13.1135 5.76179 13.1135C5.79714 13.1135 5.83132 13.1008 5.85812 13.0778C9.05872 10.3287 10.6372 7.88036 10.6372 5.76179C10.6372 5.12155 10.511 4.48758 10.266 3.89607C10.021 3.30457 9.66191 2.76711 9.2092 2.31439C8.75648 1.86167 8.21902 1.50255 7.62751 1.25754C7.03601 1.01253 6.40203 0.886429 5.76179 0.886429ZM5.76179 3.54572C6.34953 3.54572 6.9132 3.7792 7.32879 4.19479C7.74439 4.61039 7.97787 5.17405 7.97787 5.76179C7.97787 6.34953 7.74439 6.9132 7.32879 7.32879C6.9132 7.74439 6.34953 7.97786 5.76179 7.97786C5.17405 7.97786 4.61039 7.74439 4.19479 7.32879C3.7792 6.9132 3.54572 6.34953 3.54572 5.76179C3.54572 5.17405 3.7792 4.61039 4.19479 4.19479C4.61039 3.7792 5.17405 3.54572 5.76179 3.54572ZM5.76179 4.43215C5.40915 4.43215 5.07095 4.57223 4.82159 4.82159C4.57224 5.07095 4.43215 5.40915 4.43215 5.76179C4.43215 6.11444 4.57224 6.45264 4.82159 6.70199C5.07095 6.95135 5.40915 7.09144 5.76179 7.09144C6.11444 7.09144 6.45264 6.95135 6.70199 6.70199C6.95135 6.45264 7.09144 6.11444 7.09144 5.76179C7.09144 5.40915 6.95135 5.07095 6.70199 4.82159C6.45264 4.57223 6.11444 4.43215 5.76179 4.43215Z" fill="#6C6C6C"/>
</svg>