<svg xmlns="http://www.w3.org/2000/svg" width="16" height="16" viewBox="0 0 16 16" fill="none">
  <path fill-rule="evenodd" clip-rule="evenodd" d="M8 8C6.2352 8 4.8 6.5648 4.8 4.8C4.8 3.0352 6.2352 1.6 8 1.6C9.7648 1.6 11.2 3.0352 11.2 4.8C11.2 6.5648 9.7648 8 8 8ZM11.0064 8.53838C12.0992 7.65918 12.8 6.312 12.8 4.8C12.8 2.1488 10.6512 0 8 0C5.3488 0 3.2 2.1488 3.2 4.8C3.2 6.312 3.9008 7.65918 4.9936 8.53838C2.0664 9.63838 0 12.356 0 16H1.6C1.6 12 4.4712 9.6 8 9.6C11.5288 9.6 14.4 12 14.4 16H16C16 12.356 13.9336 9.63838 11.0064 8.53838Z" fill="white"/>
</svg>