<svg xmlns="http://www.w3.org/2000/svg" width="16" height="16" viewBox="0 0 16 16" fill="none">
  <g clip-path="url(#clip0_666_1887)">
    <path d="M12.6667 2.66669H3.33337C2.80294 2.66669 2.29423 2.8774 1.91916 3.25247C1.54409 3.62755 1.33337 4.13625 1.33337 4.66669V11.3334C1.33337 11.8638 1.54409 12.3725 1.91916 12.7476C2.29423 13.1226 2.80294 13.3333 3.33337 13.3333H12.6667C13.1971 13.3333 13.7058 13.1226 14.0809 12.7476C14.456 12.3725 14.6667 11.8638 14.6667 11.3334V4.66669C14.6667 4.13625 14.456 3.62755 14.0809 3.25247C13.7058 2.8774 13.1971 2.66669 12.6667 2.66669ZM12.22 4.00002L8.00004 7.16669L3.78004 4.00002H12.22ZM12.6667 12H3.33337C3.15656 12 2.98699 11.9298 2.86197 11.8048C2.73695 11.6797 2.66671 11.5102 2.66671 11.3334V4.83335L7.60004 8.53335C7.71544 8.6199 7.85579 8.66668 8.00004 8.66668C8.14429 8.66668 8.28464 8.6199 8.40004 8.53335L13.3334 4.83335V11.3334C13.3334 11.5102 13.2631 11.6797 13.1381 11.8048C13.0131 11.9298 12.8435 12 12.6667 12Z" fill="white"/>
  </g>
  <defs>
    <clipPath id="clip0_666_1887">
      <rect width="16" height="16" fill="white"/>
    </clipPath>
  </defs>
</svg>