<svg xmlns="http://www.w3.org/2000/svg" width="16" height="16" viewBox="0 0 16 16" fill="none">
  <g clip-path="url(#clip0_666_1893)">
    <path d="M8.66667 5.33333C9.1971 5.33333 9.70581 5.54405 10.0809 5.91912C10.456 6.29419 10.6667 6.8029 10.6667 7.33333C10.6667 7.51014 10.7369 7.67971 10.8619 7.80474C10.987 7.92976 11.1565 8 11.3333 8C11.5101 8 11.6797 7.92976 11.8047 7.80474C11.9298 7.67971 12 7.51014 12 7.33333C12 6.44928 11.6488 5.60143 11.0237 4.97631C10.3986 4.35119 9.55072 4 8.66667 4C8.48986 4 8.32029 4.07024 8.19526 4.19526C8.07024 4.32029 8 4.48986 8 4.66667C8 4.84348 8.07024 5.01305 8.19526 5.13807C8.32029 5.2631 8.48986 5.33333 8.66667 5.33333Z" fill="white"/>
    <path d="M8.66667 2.66665C9.90434 2.66665 11.0913 3.15831 11.9665 4.03348C12.8417 4.90865 13.3333 6.09564 13.3333 7.33331C13.3333 7.51012 13.4036 7.67969 13.5286 7.80472C13.6536 7.92974 13.8232 7.99998 14 7.99998C14.1768 7.99998 14.3464 7.92974 14.4714 7.80472C14.5964 7.67969 14.6667 7.51012 14.6667 7.33331C14.6667 5.74201 14.0345 4.21589 12.9093 3.09067C11.7841 1.96545 10.258 1.33331 8.66667 1.33331C8.48986 1.33331 8.32029 1.40355 8.19526 1.52858C8.07024 1.6536 8 1.82317 8 1.99998C8 2.17679 8.07024 2.34636 8.19526 2.47138C8.32029 2.59641 8.48986 2.66665 8.66667 2.66665Z" fill="white"/>
    <path d="M14.5 10.6066C14.4633 10.4996 14.4 10.4037 14.316 10.3279C14.2321 10.2521 14.1302 10.1989 14.02 10.1733L10.02 9.25998C9.91141 9.23536 9.79839 9.23833 9.69126 9.2686C9.58412 9.29888 9.48628 9.35551 9.40665 9.43331C9.31331 9.51998 9.30665 9.52665 8.87331 10.3533C7.43545 9.69075 6.28331 8.53388 5.62665 7.09331C6.47331 6.66665 6.47998 6.66665 6.56665 6.56665C6.64445 6.48702 6.70108 6.38917 6.73136 6.28203C6.76163 6.1749 6.7646 6.06189 6.73998 5.95331L5.82665 1.99998C5.80108 1.88978 5.74789 1.78789 5.67208 1.70392C5.59627 1.61995 5.50034 1.55665 5.39331 1.51998C5.23762 1.46437 5.07685 1.42418 4.91331 1.39998C4.74481 1.36091 4.57287 1.33858 4.39998 1.33331C3.58665 1.33331 2.80663 1.65641 2.23152 2.23152C1.65641 2.80663 1.33331 3.58665 1.33331 4.39998C1.33684 7.12179 2.41964 9.7311 4.34425 11.6557C6.26886 13.5803 8.87817 14.6631 11.6 14.6666C12.0027 14.6666 12.4015 14.5873 12.7735 14.4332C13.1456 14.2791 13.4837 14.0532 13.7684 13.7684C14.0532 13.4837 14.2791 13.1456 14.4332 12.7735C14.5873 12.4015 14.6666 12.0027 14.6666 11.6C14.6669 11.4303 14.6535 11.2609 14.6266 11.0933C14.5986 10.9277 14.5562 10.7649 14.5 10.6066ZM11.6 13.3333C9.23125 13.3315 6.96005 12.3898 5.28511 10.7148C3.61017 9.03991 2.66841 6.7687 2.66665 4.39998C2.6684 3.94081 2.85158 3.50095 3.17627 3.17627C3.50095 2.85158 3.94081 2.6684 4.39998 2.66665H4.61998L5.33331 5.75998L4.97331 5.94665C4.39998 6.24665 3.94665 6.48665 4.18665 7.00665C4.57746 8.11303 5.20983 9.11847 6.0378 9.9499C6.86578 10.7813 7.86857 11.4179 8.97331 11.8133C9.53331 12.04 9.75331 11.62 10.0533 11.04L10.2466 10.6733L13.3333 11.38V11.6C13.3316 12.0591 13.1484 12.499 12.8237 12.8237C12.499 13.1484 12.0591 13.3316 11.6 13.3333Z" fill="white"/>
  </g>
  <defs>
    <clipPath id="clip0_666_1893">
      <rect width="16" height="16" fill="white"/>
    </clipPath>
  </defs>
</svg>