<svg xmlns="http://www.w3.org/2000/svg" width="7" height="14" viewBox="0 0 7 14" fill="none">
  <path d="M3.34081 1.75907C3.58192 1.75907 3.81315 1.85485 3.98364 2.02533C4.15412 2.19582 4.2499 2.42705 4.2499 2.66816C4.2499 2.90926 4.15412 3.14049 3.98364 3.31098C3.81315 3.48147 3.58192 3.57725 3.34081 3.57725C3.09971 3.57725 2.86847 3.48147 2.69799 3.31098C2.5275 3.14049 2.43172 2.90926 2.43172 2.66816C2.43172 2.42705 2.5275 2.19582 2.69799 2.02533C2.86847 1.85485 3.09971 1.75907 3.34081 1.75907ZM3.34081 0.849976C2.8586 0.849976 2.39614 1.04153 2.05516 1.38251C1.71419 1.72348 1.52263 2.18595 1.52263 2.66816C1.52263 3.15037 1.71419 3.61283 2.05516 3.95381C2.39614 4.29478 2.8586 4.48634 3.34081 4.48634C3.82302 4.48634 4.28549 4.29478 4.62646 3.95381C4.96744 3.61283 5.15899 3.15037 5.15899 2.66816C5.15899 2.18595 4.96744 1.72348 4.62646 1.38251C4.28549 1.04153 3.82302 0.849976 3.34081 0.849976ZM4.45899 4.93179H2.22263C1.79587 4.93179 1.38659 5.10132 1.08483 5.40309C0.783067 5.70485 0.613538 6.11413 0.613538 6.54088V8.94088C0.603604 9.1935 0.693339 9.4399 0.863397 9.62696C1.03345 9.81403 1.27021 9.92677 1.52263 9.94088V12.0591C1.52263 12.3484 1.63756 12.6259 1.84215 12.8305C2.04673 13.035 2.32421 13.15 2.61354 13.15H4.06808C4.21446 13.1501 4.35935 13.1207 4.49413 13.0636C4.62891 13.0065 4.75083 12.9229 4.85262 12.8177C4.95441 12.7125 5.03399 12.5879 5.08663 12.4514C5.13926 12.3148 5.16387 12.169 5.15899 12.0227V9.94088C5.41141 9.92677 5.64817 9.81403 5.81823 9.62696C5.98828 9.4399 6.07802 9.1935 6.06809 8.94088V6.54088C6.06809 6.11413 5.89856 5.70485 5.59679 5.40309C5.29503 5.10132 4.88575 4.93179 4.45899 4.93179ZM1.52263 9.03179V6.54088C1.52141 6.44862 1.53868 6.35705 1.57342 6.27157C1.60817 6.18609 1.65969 6.10843 1.72493 6.04319C1.79018 5.97794 1.86783 5.92642 1.95331 5.89168C2.03879 5.85693 2.13037 5.83966 2.22263 5.84088H4.45899C4.55126 5.83966 4.64283 5.85693 4.72831 5.89168C4.81379 5.92642 4.89145 5.97794 4.95669 6.04319C5.02194 6.10843 5.07345 6.18609 5.1082 6.27157C5.14295 6.35705 5.16022 6.44862 5.15899 6.54088V9.03179H4.2499V12.0409C4.2499 12.0891 4.23075 12.1354 4.19665 12.1694C4.16255 12.2035 4.11631 12.2227 4.06808 12.2227H2.61354C2.56532 12.2227 2.51907 12.2035 2.48497 12.1694C2.45088 12.1354 2.43172 12.0891 2.43172 12.0409V9.03179H1.52263Z" fill="#6C6C6C"/>
</svg>