<svg width="20" height="20" viewBox="0 0 20 20" fill="none" xmlns="http://www.w3.org/2000/svg">
<g id="relationship-svgrepo-com 2">
<g id="Group">
<path id="Vector" d="M15.6663 15.3339H14.666V13.3333H15.6663C15.866 13.3333 15.9996 13.1997 15.9996 13V4.33333C15.9996 4.13333 15.866 4 15.6663 4H6.9994C6.7994 4 6.66606 4.13333 6.66606 4.33333V5.33333H4.66602V4.33333C4.66602 3.03333 5.69937 2 6.9994 2H15.6663C16.9666 2 17.9997 3.03333 17.9997 4.33333V13C17.9997 14.3003 16.9671 15.3339 15.6663 15.3339Z" fill="white"/>
<path id="Vector_2" d="M12.0002 6.6665H3.33336C2.60028 6.6665 2 7.26624 2 7.99984V16.6665C2 17.3998 2.60028 17.9998 3.33336 17.9998H12.0002C12.7336 17.9998 13.3336 17.3998 13.3336 16.6665V7.99984C13.3336 7.2665 12.7341 6.6665 12.0002 6.6665Z" fill="white"/>
</g>
</g>
</svg>
