<svg xmlns="http://www.w3.org/2000/svg" width="25" height="24" viewBox="0 0 25 24" fill="none">
<path d="M10.6552 20.6419C8.61389 20.6419 6.61844 20.0366 4.92117 18.9025C3.2239 17.7684 1.90104 16.1565 1.11987 14.2706C0.3387 12.3847 0.134311 10.3095 0.532547 8.30744C0.930784 6.30537 1.91376 4.46635 3.35717 3.02294C4.80058 1.57953 6.6396 0.596555 8.64167 0.198319C10.6437 -0.199917 12.7189 0.00447184 14.6048 0.78564C16.4908 1.56681 18.1027 2.88967 19.2367 4.58694C20.3708 6.28421 20.9761 8.27967 20.9761 10.321C20.9761 11.6763 20.7092 13.0184 20.1905 14.2706C19.6718 15.5228 18.9116 16.6606 17.9532 17.619C16.9948 18.5774 15.857 19.3376 14.6048 19.8563C13.3526 20.375 12.0106 20.6419 10.6552 20.6419ZM10.6552 2.06968C9.02866 2.06968 7.43866 2.552 6.08625 3.45565C4.73384 4.3593 3.67977 5.64369 3.05732 7.14641C2.43488 8.64912 2.27202 10.3027 2.58934 11.8979C2.90666 13.4932 3.68991 14.9586 4.84003 16.1087C5.99016 17.2588 7.45551 18.0421 9.05079 18.3594C10.6461 18.6767 12.2996 18.5139 13.8023 17.8914C15.305 17.269 16.5894 16.2149 17.4931 14.8625C18.3967 13.5101 18.8791 11.9201 18.8791 10.2935C18.8791 8.11244 18.0126 6.02067 16.4703 4.47839C14.9281 2.93612 12.8363 2.06968 10.6552 2.06968Z" fill="white"/>
<path d="M23.3062 24C23.1712 24.0006 23.0373 23.9743 22.9126 23.9225C22.7878 23.8707 22.6747 23.7945 22.5798 23.6984L16.919 18.0377C16.7374 17.8428 16.6386 17.5851 16.6433 17.3188C16.648 17.0524 16.7559 16.7983 16.9442 16.61C17.1326 16.4216 17.3867 16.3138 17.653 16.3091C17.9193 16.3044 18.177 16.4032 18.3719 16.5848L24.0327 22.2456C24.2252 22.4383 24.3333 22.6996 24.3333 22.972C24.3333 23.2444 24.2252 23.5057 24.0327 23.6984C23.9378 23.7945 23.8246 23.8707 23.6999 23.9225C23.5751 23.9743 23.4413 24.0006 23.3062 24Z" fill="white"/>
</svg>