<svg width="55" height="48" viewBox="0 0 55 48" fill="none" xmlns="http://www.w3.org/2000/svg">
<path id="Vector" d="M5.14286 48H18.8571C21.6964 48 24 45.6964 24 42.8571V29.1429C24 26.3036 21.6964 24 18.8571 24H10.2857V17.1429C10.2857 13.3607 13.3607 10.2857 17.1429 10.2857H18C19.425 10.2857 20.5714 9.13929 20.5714 7.71429V2.57143C20.5714 1.14643 19.425 0 18 0H17.1429C7.67143 0 0 7.67143 0 17.1429V42.8571C0 45.6964 2.30357 48 5.14286 48ZM36 48H49.7143C52.5536 48 54.8571 45.6964 54.8571 42.8571V29.1429C54.8571 26.3036 52.5536 24 49.7143 24H41.1428V17.1429C41.1428 13.3607 44.2178 10.2857 48 10.2857H48.8571C50.2821 10.2857 51.4286 9.13929 51.4286 7.71429V2.57143C51.4286 1.14643 50.2821 0 48.8571 0H48C38.5286 0 30.8571 7.67143 30.8571 17.1429V42.8571C30.8571 45.6964 33.1607 48 36 48Z" fill="#C8C8C8"/>
</svg>
